<svg xmlns="http://www.w3.org/2000/svg" width="430" height="430" style="width:100%;height:100%;transform:translate3d(0,0,0);content-visibility:visible" viewBox="0 0 430 430"><defs><clipPath id="a"><path d="M0 0h430v430H0z"/></clipPath><clipPath id="f"><path d="M0 0h430v430H0z"/></clipPath><clipPath id="e"><path d="M0 0h430v430H0z"/></clipPath><clipPath id="d"><path d="M0 0h430v430H0z"/></clipPath><clipPath id="c"><path d="M0 0h430v430H0z"/></clipPath><clipPath id="b"><path d="M0 0h430v430H0z"/></clipPath></defs><g fill="none" clip-path="url(#a)"><g clip-path="url(#b)" style="display:none"><path class="secondary" style="display:none"/><g style="display:none"><path class="secondary"/><path class="primary"/></g></g><g clip-path="url(#c)" style="display:none"><path class="secondary" style="display:none"/><g style="display:none"><path class="secondary"/><path class="primary"/></g></g><g clip-path="url(#d)" style="display:none"><path class="secondary" style="display:none"/><g style="display:none"><path class="secondary"/><path class="primary"/></g></g><g stroke-linecap="round" stroke-linejoin="round" stroke-width="2.94" clip-path="url(#e)" style="display:block"><path stroke="#08A88A" d="M12.523 20.662c9.272 1.492 15.644 4.592 15.644 8.174 0 0 0 0 0 0 0 5.037-12.599 9.12-28.141 9.12-15.542 0-28.141-4.083-28.141-9.12 0-3.582 6.372-6.682 15.644-8.174" class="secondary" style="display:block" transform="matrix(4.24 0 0 4.24 215 215.187)"/><path stroke="#121331" d="M-19.333-4.674c-.739-1.288-1.395-2.627-1.866-4.036a22.31 22.31 0 0 1-1.144-7.08c0-12.832 10.816-23.139 23.836-22.301 11.038.711 20.013 9.619 20.808 20.652a22.446 22.446 0 0 1-.926 8.229c-.492 1.602-1.209 3.125-2.043 4.578L.012 29.02-19.333-4.674z" class="primary" style="display:block" transform="matrix(4.24 0 0 4.1976 215 216.417)"/><path stroke="#08A88A" d="M10.527-15.789C10.527-9.981 5.818-5.272.01-5.272s-10.517-4.709-10.517-10.517S-5.798-26.306.01-26.306s10.517 4.709 10.517 10.517z" class="secondary" style="display:block" transform="matrix(4.24 0 0 4.1976 215 219.527)"/></g><g clip-path="url(#f)" style="display:none"><path class="secondary" style="display:none"/><path class="primary" style="display:none"/><path class="secondary" style="display:none"/></g></g></svg>